# xmcd CD database file
#
# Track frame offsets:
#	150
#	10410
#	18555
#	29702
#	41910
#	54292
#	71405
#	84210
#	100020
#	112120
#	123980
#	134792
#	146130
#	158987
#	171145
#	180140
#	192912
#	201425
#	214560
#	224305
#
# Disc length: 3230 seconds
#
# Revision: 0
# Processed by: cddbd v1.5.1PL0 Copyright (c) Steve Scherf et al.
# Submitted via: CDex 1.51
#
DISCID=250c9c14
DTITLE=Nashville Session Musicians - Country Keyboards
DYEAR=2003
DGENRE=Country
TTITLE0=Buckaroo
TTITLE1=Wheels
TTITLE2=(Now and Then There's) A Fool Such As I
TTITLE3=Tumbling Tumbleweeds
TTITLE4=Stand By Your Man
TTITLE5=Lone Ranger Theme
TTITLE6=It Keeps Right On-A-Hurtin'
TTITLE7=Tennessee Waltz, I'm So Lonesome I Could Cry
TTITLE8=Blue Eyes Crying In The Rain
TTITLE9=Wabash Canonball
TTITLE10=Down Yonder
TTITLE11=Singing The Blues, Your Cheatin' Heart
TTITLE12=Don't It Make My Brown Eyes Blue
TTITLE13=Faded Love
TTITLE14=It's A Small World
TTITLE15=Last Date
TTITLE16=Dallas T.V. Theme
TTITLE17=Have I Told You Lately That I Love You
TTITLE18=San Antonio Rose
TTITLE19=American Trilogy
EXTD=YEAR: 2003
EXTT0=
EXTT1=
EXTT2=
EXTT3=
EXTT4=
EXTT5=
EXTT6=
EXTT7=
EXTT8=
EXTT9=
EXTT10=
EXTT11=
EXTT12=
EXTT13=
EXTT14=
EXTT15=
EXTT16=
EXTT17=
EXTT18=
EXTT19=
PLAYORDER=
